<svg width="156" height="41" viewBox="0 0 156 41" fill="none" xmlns="http://www.w3.org/2000/svg">
<rect width="40.8086" height="41" rx="8.16034" fill="#249496"/>
<rect x="7.01392" y="8.96875" width="10.2021" height="10.25" rx="1.88316" fill="#EDF4F3"/>
<path d="M9.24561 14.0938L11.1585 16.0156L14.9843 12.1719" stroke="#2D6870" stroke-width="1.88316"/>
<rect x="10.2021" y="24.9844" width="20.4043" height="10.25" rx="5.02175" fill="#EDF4F3"/>
<ellipse cx="25.5053" cy="30.1094" rx="3.18817" ry="3.20312" fill="#AF88F0"/>
<rect x="23.5925" y="8.96875" width="10.2021" height="10.25" rx="1.88316" fill="#EDF4F3"/>
<ellipse cx="28.6936" cy="14.0938" rx="2.55053" ry="2.5625" fill="#2D6870"/>
<path d="M52.0636 17.4832C50.701 17.4832 49.6442 17.0165 48.8932 16.0831C48.1422 15.1497 47.7666 13.6798 47.7666 11.6735C47.7666 9.66718 48.1422 8.19731 48.8932 7.2639C49.6442 6.33048 50.701 5.86377 52.0636 5.86377C53.4262 5.86377 54.483 6.33048 55.234 7.2639C55.985 8.19731 56.3605 9.66718 56.3605 11.6735C56.3605 13.6798 55.985 15.1497 55.234 16.0831C54.483 17.0165 53.4262 17.4832 52.0636 17.4832ZM52.0636 16.3406C52.997 16.3406 53.7158 16.0348 54.2201 15.4233C54.7244 14.801 54.9765 13.9695 54.9765 12.9288V10.4182C54.9765 9.3775 54.7244 8.55137 54.2201 7.93982C53.7158 7.31754 52.997 7.0064 52.0636 7.0064C51.1302 7.0064 50.4113 7.31754 49.9071 7.93982C49.4028 8.55137 49.1507 9.3775 49.1507 10.4182V12.9288C49.1507 13.9695 49.4028 14.801 49.9071 15.4233C50.4113 16.0348 51.1302 16.3406 52.0636 16.3406Z" fill="#249496"/>
<path d="M58.5282 17.2901V6.05689H62.6642C64.5203 6.05689 65.4484 7.12442 65.4484 9.25948C65.4484 11.3945 64.5203 12.4621 62.6642 12.4621H59.8157V17.2901H58.5282ZM59.8157 11.3355H62.632C63.5869 11.3355 64.0644 10.8205 64.0644 9.79056V8.7284C64.0644 7.69842 63.5869 7.18343 62.632 7.18343H59.8157V11.3355Z" fill="#249496"/>
<path d="M67.345 17.2901V6.05689H73.5571V7.18343H68.6325V11.0458H73.2513V12.1724H68.6325V16.1636H73.5571V17.2901H67.345Z" fill="#249496"/>
<path d="M78.1013 9.99978L77.1196 7.68233H76.9587L77.0714 9.99978V17.2901H75.8161V6.05689H77.3932L81.1269 13.3472L82.1086 15.6647H82.2695L82.1569 13.3472V6.05689H83.4122V17.2901H81.835L78.1013 9.99978Z" fill="#249496"/>
<path d="M52.6561 37.5788C51.5492 37.5788 50.5699 37.3802 49.7184 36.9828C48.8811 36.5712 48.1574 35.9681 47.5471 35.1734L49.2927 33.4916C49.7184 34.0735 50.2152 34.5205 50.7828 34.8327C51.3505 35.1308 51.9891 35.2798 52.6987 35.2798C54.2882 35.2798 55.0829 34.556 55.0829 33.1085C55.0829 32.5124 54.941 32.0583 54.6571 31.7461C54.3733 31.4338 53.905 31.2068 53.2522 31.0649L51.9536 30.8094C50.6054 30.5256 49.612 30.0431 48.9734 29.3619C48.3348 28.6807 48.0154 27.7298 48.0154 26.5093C48.0154 25.0902 48.4341 24.0187 49.2714 23.2949C50.1229 22.5712 51.3292 22.2093 52.8903 22.2093C53.9547 22.2093 54.8629 22.3867 55.6151 22.7415C56.3814 23.0821 57.0342 23.6213 57.5735 24.3593L55.828 25.9984C55.459 25.5017 55.0403 25.1327 54.572 24.8915C54.1037 24.636 53.5289 24.5083 52.8477 24.5083C52.0955 24.5083 51.5421 24.6573 51.1873 24.9554C50.8325 25.2534 50.6551 25.7359 50.6551 26.4029C50.6551 26.9564 50.7899 27.3821 51.0596 27.6802C51.3434 27.9782 51.7975 28.1981 52.422 28.3401L53.7205 28.6168C54.4443 28.7729 55.0545 28.9645 55.5512 29.1916C56.0621 29.4186 56.4737 29.7025 56.7859 30.0431C57.1123 30.3837 57.3465 30.7881 57.4884 31.2565C57.6445 31.7106 57.7225 32.2499 57.7225 32.8743C57.7225 34.407 57.2826 35.5778 56.4027 36.3867C55.537 37.1815 54.2882 37.5788 52.6561 37.5788Z" fill="#249496"/>
<path d="M62.6591 22.4647V32.108C62.6591 33.2007 62.8365 34.0025 63.1913 34.5134C63.5602 35.0243 64.2273 35.2798 65.1923 35.2798C66.1573 35.2798 66.8172 35.0243 67.172 34.5134C67.541 34.0025 67.7255 33.2007 67.7255 32.108V22.4647H70.3864V31.7248C70.3864 32.7466 70.2942 33.6265 70.1097 34.3644C69.9394 35.1024 69.6485 35.7126 69.2369 36.1952C68.8254 36.6635 68.2861 37.0112 67.6191 37.2382C66.9662 37.4653 66.1573 37.5788 65.1923 37.5788C64.2273 37.5788 63.4112 37.4653 62.7442 37.2382C62.0914 37.0112 61.5592 36.6635 61.1477 36.1952C60.7361 35.7126 60.4381 35.1024 60.2536 34.3644C60.0833 33.6265 59.9981 32.7466 59.9981 31.7248V22.4647H62.6591Z" fill="#249496"/>
<path d="M73.3885 22.4647H79.7109C80.8746 22.4647 81.7474 22.7982 82.3292 23.4652C82.9253 24.1322 83.2233 25.0689 83.2233 26.2752C83.2233 27.2544 83.0175 28.0137 82.606 28.5529C82.1944 29.0922 81.5842 29.3902 80.7752 29.447V29.7663C81.2152 29.7663 81.6125 29.8515 81.9673 30.0218C82.3363 30.1779 82.6485 30.405 82.904 30.703C83.1736 30.9868 83.3794 31.3345 83.5213 31.7461C83.6632 32.1434 83.7342 32.5834 83.7342 33.0659C83.7342 33.6761 83.649 34.2438 83.4787 34.7689C83.3226 35.2798 83.0956 35.7268 82.7975 36.11C82.4995 36.4932 82.1376 36.7912 81.7119 37.0041C81.3003 37.2169 80.832 37.3234 80.3069 37.3234H73.3885V22.4647ZM76.0494 35.003H79.5406C79.9805 35.003 80.3211 34.8895 80.5624 34.6624C80.8178 34.4212 80.9455 34.0238 80.9455 33.4704V32.4273C80.9455 31.8738 80.8178 31.4835 80.5624 31.2565C80.3211 31.0152 79.9805 30.8946 79.5406 30.8946H76.0494V35.003ZM76.0494 28.6381H79.1148C79.5406 28.6381 79.8741 28.5317 80.1153 28.3188C80.3566 28.1059 80.4772 27.7369 80.4772 27.2118V26.2113C80.4772 25.6862 80.3566 25.3172 80.1153 25.1044C79.8741 24.8915 79.5406 24.7851 79.1148 24.7851H76.0494V28.6381Z" fill="#249496"/>
<path d="M96.2216 28.851L96.3919 26.339H96.0939L95.1147 28.7658L92.4325 34.4921L89.7715 28.7658L88.7923 26.3603H88.4943L88.6646 28.851V37.3234H86.1526V22.4647H89.069L91.2829 27.297L92.3686 30.3411H92.5602L93.6458 27.297L95.8172 22.4647H98.7336V37.3234H96.2216V28.851Z" fill="#249496"/>
<path d="M101.316 37.3234V35.2159H103.083V24.5722H101.316V22.4647H107.51V24.5722H105.744V35.2159H107.51V37.3234H101.316Z" fill="#249496"/>
<path d="M115.361 24.7851V37.3234H112.7V24.7851H108.975V22.4647H119.108V24.7851H115.361Z" fill="#249496"/>
<path d="M126.878 24.7851V37.3234H124.217V24.7851H120.492V22.4647H130.625V24.7851H126.878Z" fill="#249496"/>
<path d="M132.698 37.3234V22.4647H141.618V24.7851H135.359V28.6594H140.83V30.9158H135.359V35.003H141.618V37.3234H132.698Z" fill="#249496"/>
<path d="M146.938 37.3234H144.277V22.4647H150.43C151.735 22.4647 152.722 22.8621 153.389 23.6568C154.07 24.4515 154.41 25.5585 154.41 26.9777C154.41 28.0988 154.197 29.0284 153.772 29.7663C153.346 30.4901 152.722 30.9868 151.898 31.2565L154.602 37.3234H151.728L149.28 31.4693H146.938V37.3234ZM150.153 29.2554C150.607 29.2554 150.962 29.1348 151.217 28.8935C151.487 28.6523 151.622 28.2478 151.622 27.6802V26.3603C151.622 25.7927 151.487 25.3882 151.217 25.1469C150.962 24.9057 150.607 24.7851 150.153 24.7851H146.938V29.2554H150.153Z" fill="#249496"/>
</svg>
