<svg viewBox="0 0 24 24">
    <path fill="currentColor" d="M24.7,0.7l-1.4-1.4l-3.2,3.2c-2-1.3-4.7-1.1-6.4,0.7L12.8,4l-1.4,1.4l1.4,1.4l4.4,4.4l1.4,1.4l1.4-1.4l0.9-0.9 c1.8-1.8,2-4.5,0.6-6.5L24.7,0.7z M19.5,9l-0.9,0.9l-4.4-4.4l0.9-0.9c1.2-1.2,3.2-1.2,4.4,0C20.8,5.8,20.8,7.8,19.5,9z M13.6,13.8 c-0.4-0.4-1-0.4-1.4,0l-2,2l-2-2l2-2c0.4-0.4,0.4-1,0-1.4c-0.4-0.4-1-0.4-1.4,0l-2,2l-1.3-1.3l-1.4,1.4l-1,1c-1.8,1.8-2,4.6-0.7,6.6 l-3.2,3.2l1.4,1.4l3.1-3.1c2.1,1.4,4.9,1.2,6.7-0.6l1-1l1.4-1.4l-1.3-1.3l2-2C14,14.8,14,14.2,13.6,13.8z M9.2,19.5 c-1.3,1.3-3.3,1.3-4.6,0c-1.3-1.3-1.3-3.3,0-4.6l1-1l4.6,4.6L9.2,19.5z"/>
</svg>
