<svg width="32" height="32" viewBox="0 0 32 32" fill="none" xmlns="http://www.w3.org/2000/svg">
<path fill-rule="evenodd" clip-rule="evenodd" d="M16.6474 1.50104C16.2448 1.27732 15.7552 1.27732 15.3525 1.50104L3.35244 8.16771L3.34303 8.18371L3.32379 8.18395C2.91661 8.42352 2.66663 8.86083 2.66663 9.33325V22.6665C2.66663 23.1507 2.92915 23.5969 3.35244 23.8319L15.3362 30.4897C15.7412 30.7221 16.2388 30.7259 16.6474 30.4989L28.6474 23.8322C29.0708 23.597 29.3333 23.1509 29.3333 22.6666V9.33325C29.3333 8.86083 29.0833 8.42367 28.6761 8.18409C28.6661 8.17821 28.6561 8.17248 28.646 8.16688L16.6474 1.50104ZM6.7456 9.33319L16.0001 14.4746L19.314 12.6335L10.3239 7.34523L6.7456 9.33319ZM22.0189 11.1308L25.2545 9.33325L16 4.19187L13.0288 5.84252L22.0189 11.1308ZM5.33329 21.8819V11.5993L14.6666 16.7845V27.0671L5.33329 21.8819ZM17.3333 27.0673V16.7845L26.6666 11.5993V21.8821L17.3333 27.0673Z" fill="#0F0F0F"/>
</svg>
