<?xml version="1.0" encoding="utf-8"?>
<!-- Generator: Adobe Illustrator 23.0.3, SVG Export Plug-In . SVG Version: 6.00 Build 0)  -->
<svg version="1.1" id="Layer_1" xmlns="http://www.w3.org/2000/svg" xmlns:xlink="http://www.w3.org/1999/xlink" x="0px" y="0px"
	 viewBox="0 0 32 32" style="enable-background:new 0 0 32 32;" xml:space="preserve">
<style type="text/css">
	.st0{fill:#0F0F0F;}
</style>
<path class="st0" d="M5.7,9.3H9c0.7,0,1.3,0.6,1.3,1.3c0,0.7-0.6,1.3-1.3,1.3H3.7C2.2,12,1,10.8,1,9.3V4c0-0.7,0.6-1.3,1.3-1.3
	c0.7,0,1.3,0.6,1.3,1.3v3.6c1.5-2.2,3.6-3.9,6.1-5c3-1.3,6.4-1.6,9.5-0.8c3.2,0.8,6,2.6,8,5.2c1.7,2.2,2.8,4.9,3,7.7
	c0.1,0.7-0.5,1.3-1.3,1.3c-0.7,0-1.3-0.6-1.4-1.3c-0.2-2.2-1.1-4.3-2.4-6.1c-1.6-2.1-3.9-3.6-6.5-4.3S13.3,4,10.8,5
	c-2,0.9-3.8,2.4-5,4.2C5.7,9.3,5.7,9.3,5.7,9.3z M27.6,24.4c-1.5,2.2-3.6,3.9-6.1,5c-3,1.3-6.4,1.6-9.5,0.8c-3.2-0.8-6-2.6-8-5.2
	c-1.7-2.2-2.8-4.9-3-7.7c-0.1-0.7,0.5-1.3,1.3-1.3c0.7,0,1.3,0.6,1.4,1.3c0.2,2.2,1.1,4.3,2.4,6.1c1.6,2.1,3.9,3.6,6.5,4.3
	S18,28,20.5,27c2-0.9,3.8-2.4,5-4.2c0,0,0.1-0.1,0.1-0.1h-3.3c-0.7,0-1.3-0.6-1.3-1.3c0-0.7,0.6-1.3,1.3-1.3h5.3
	c1.5,0,2.7,1.2,2.7,2.7V28c0,0.7-0.6,1.3-1.3,1.3s-1.3-0.6-1.3-1.3V24.4z"/>
</svg>
