<svg width="32" height="32" viewBox="0 0 32 32" fill="none" xmlns="http://www.w3.org/2000/svg">
<path fill-rule="evenodd" clip-rule="evenodd" d="M7.99997 2.66659C7.99997 1.93021 8.59693 1.33325 9.3333 1.33325C10.0697 1.33325 10.6666 1.93021 10.6666 2.66659V6.8618C12.591 7.43757 13.9934 9.22162 13.9934 11.3333C13.9934 13.4449 12.591 15.229 10.6666 15.8047V29.3333C10.6666 30.0697 10.0697 30.6666 9.3333 30.6666C8.59693 30.6666 7.99997 30.0697 7.99997 29.3333V15.8086C6.06898 15.237 4.66016 13.4497 4.66016 11.3333C4.66016 9.21689 6.06898 7.42956 7.99997 6.85793V2.66659ZM9.32682 13.3398C8.21868 13.3398 7.32034 12.4414 7.32034 11.3333C7.32034 10.2251 8.21868 9.32679 9.32682 9.32679C10.435 9.32679 11.3333 10.2251 11.3333 11.3333C11.3333 12.4414 10.435 13.3398 9.32682 13.3398Z" fill="#0F0F0F"/>
<path fill-rule="evenodd" clip-rule="evenodd" d="M24.0001 25.1419C25.9311 24.5703 27.3399 22.783 27.3399 20.6666C27.3399 18.5502 25.9311 16.7629 24.0001 16.1913V2.66659C24.0001 1.93021 23.4031 1.33325 22.6667 1.33325C21.9303 1.33325 21.3334 1.93021 21.3334 2.66659V16.1951C19.4091 16.7709 18.0066 18.555 18.0066 20.6666C18.0066 22.7782 19.4091 24.5623 21.3334 25.1381V29.3333C21.3334 30.0697 21.9303 30.6666 22.6667 30.6666C23.4031 30.6666 24.0001 30.0697 24.0001 29.3333V25.1419ZM22.6733 22.6731C21.5651 22.6731 20.6667 21.7747 20.6667 20.6666C20.6667 19.5585 21.5651 18.6601 22.6733 18.6601C23.7814 18.6601 24.6797 19.5585 24.6797 20.6666C24.6797 21.7747 23.7814 22.6731 22.6733 22.6731Z" fill="#0F0F0F"/>
</svg>
