<svg xmlns="http://www.w3.org/2000/svg" version="1.1" xmlns:xlink="http://www.w3.org/1999/xlink" xmlns:svgjs="http://svgjs.dev/svgjs" width="1000" height="1000" viewBox="0 0 1000 1000"><rect width="1000" height="1000" fill="#ffffff"></rect><g transform="matrix(0.7,0,0,0.7,150,106.25)"><svg viewBox="0 0 320 360" data-background-color="#883d1a" preserveAspectRatio="xMidYMid meet" height="1125" width="1000" xmlns="http://www.w3.org/2000/svg" xmlns:xlink="http://www.w3.org/1999/xlink"><g id="tight-bounds" transform="matrix(1,0,0,1,0,0)"><svg viewBox="0 0 320 360" height="360" width="320"><g><svg></svg></g><g><svg viewBox="0 0 320 360" height="360" width="320"><g><path xmlns="http://www.w3.org/2000/svg" d="M160 42.18c72.417 0 131.943 56.114 137.63 127.014h22.37c-1.137-17.82-5.308-34.882-12.133-51.185-7.962-18.957-19.716-36.398-34.502-50.805-14.787-14.787-31.848-26.161-50.806-34.503-20.095-8.341-40.948-12.891-62.559-12.891-21.611 0-42.464 4.171-62.559 12.512-18.957 7.962-36.398 19.716-50.806 34.503-14.787 14.787-26.161 31.848-34.502 50.805-6.825 16.303-10.995 33.744-12.133 51.185h22.37c5.687-70.521 65.213-126.635 137.63-126.635zM160 318.199c-72.417 0-131.943-56.114-137.63-127.014h-22.37c1.137 17.82 5.308 34.882 12.133 51.185 7.962 18.957 19.716 36.398 34.502 50.805 14.787 14.787 31.848 26.161 50.806 34.503 19.716 8.341 40.569 12.512 62.559 12.512 21.991 0 42.464-4.171 62.559-12.512 18.957-7.962 36.398-19.716 50.806-34.503 14.787-14.787 26.161-31.848 34.502-50.805 6.825-16.303 10.995-33.744 12.133-51.185h-22.37c-5.687 70.9-65.213 127.014-137.63 127.014z" fill="#000000" fill-rule="nonzero" stroke="none" stroke-width="1" stroke-linecap="butt" stroke-linejoin="miter" stroke-miterlimit="10" stroke-dasharray="" stroke-dashoffset="0" font-family="none" font-weight="none" font-size="none" text-anchor="none" style="mix-blend-mode: normal" data-fill-palette-color="tertiary"></path></g><g transform="matrix(1,0,0,1,56,113.07869801722772)"><svg viewBox="0 0 208 133.84260396554455" height="133.84260396554455" width="208"><g><svg viewBox="0 0 208 133.84260396554455" height="133.84260396554455" width="208"><g><svg viewBox="0 0 208 133.84260396554455" height="133.84260396554455" width="208"><g transform="matrix(1,0,0,1,0,99.44750798547481)"><svg viewBox="0 0 208 34.39509598006975" height="34.39509598006975" width="208"><g id="textblocktransform"><svg viewBox="0 0 208 34.39509598006975" height="34.39509598006975" width="208" id="textblock"><g><svg viewBox="0 0 208 18.551071250622815" height="18.551071250622815" width="208"><g transform="matrix(1,0,0,1,0,0)"><svg width="208" viewBox="2.9000000953674316 -35.150001525878906 401.3699951171875 35.80000305175781" height="18.551071250622815" data-palette-color="#e6b17e"><path d="M16.8-35.15L16.8-35.15Q20.6-35.15 23.28-34.25 25.95-33.35 27.55-31.3 29.15-29.25 29.88-25.8 30.6-22.35 30.6-17.25L30.6-17.25Q30.6-12.2 29.88-8.72 29.15-5.25 27.55-3.2 25.95-1.15 23.28-0.25 20.6 0.65 16.8 0.65L16.8 0.65Q13 0.65 10.33-0.25 7.65-1.15 6.03-3.2 4.4-5.25 3.65-8.72 2.9-12.2 2.9-17.25L2.9-17.25Q2.9-22.35 3.65-25.8 4.4-29.25 6.03-31.3 7.65-33.35 10.33-34.25 13-35.15 16.8-35.15ZM16.8-30.8L16.8-30.8Q13.55-30.8 11.65-29.55 9.75-28.3 8.97-25.38 8.2-22.45 8.2-17.25L8.2-17.25Q8.2-12.1 8.97-9.15 9.75-6.2 11.65-4.95 13.55-3.7 16.8-3.7L16.8-3.7Q20.05-3.7 21.93-4.95 23.8-6.2 24.6-9.15 25.4-12.1 25.4-17.25L25.4-17.25Q25.4-22.45 24.6-25.38 23.8-28.3 21.93-29.55 20.05-30.8 16.8-30.8ZM49.9-34.95L49.9-34.95Q54.15-34.95 56.65-34 59.15-33.05 60.22-30.7 61.3-28.35 61.3-24.05L61.3-24.05Q61.3-19.8 60.25-17.43 59.2-15.05 56.82-14.13 54.45-13.2 50.5-13.2L50.5-13.2Q48.35-13.2 46.37-13.3 44.4-13.4 42.75-13.6 41.1-13.8 39.92-14.03 38.75-14.25 38.3-14.45L38.3-14.45 38.45-17.35Q41.15-17.35 44.05-17.35 46.95-17.35 49.85-17.35L49.85-17.35Q52.25-17.4 53.65-17.95 55.05-18.5 55.65-19.95 56.25-21.4 56.25-24.05L56.25-24.05Q56.25-26.75 55.65-28.2 55.05-29.65 53.65-30.23 52.25-30.8 49.85-30.8L49.85-30.8Q45.65-30.8 42.6-30.75 39.55-30.7 38.5-30.6L38.5-30.6 37.8-34.5Q39.7-34.7 41.4-34.8 43.1-34.9 45.1-34.93 47.1-34.95 49.9-34.95ZM37.8-34.5L42.8-34.5 42.8 0 37.8 0 37.8-34.5ZM74.05-34.55L74.05-34.55Q76.55-34.55 79.15-34.55 81.75-34.55 84.27-34.48 86.8-34.4 89.09-34.25L89.09-34.25 88.9-30.4 75.15-30.4Q73.65-30.4 72.95-29.65 72.25-28.9 72.25-27.25L72.25-27.25 72.25-7.25Q72.25-5.6 72.95-4.83 73.65-4.05 75.15-4.05L75.15-4.05 88.9-4.05 89.09-0.25Q86.8-0.1 84.27-0.05 81.75 0 79.15 0.03 76.55 0.05 74.05 0.05L74.05 0.05Q70.95 0.05 69.12-1.63 67.3-3.3 67.25-6.1L67.25-6.1 67.25-28.4Q67.3-31.25 69.12-32.9 70.95-34.55 74.05-34.55ZM68.15-16.25L68.15-20.1 86.95-20.1 86.95-16.25 68.15-16.25ZM117.84-34.5L122.69-34.5 122.69-1.95Q122.69 0 120.84 0L120.84 0 116.54 0Q115.69 0 115.22-0.4 114.74-0.8 114.39-1.55L114.39-1.55 103.09-24.85Q102.64-25.85 102.04-27.13 101.44-28.4 101.14-29.5L101.14-29.5 100.39-29.5Q100.49-28.35 100.54-27.18 100.59-26 100.59-24.8L100.59-24.8 100.59 0 95.69 0 95.69-32.55Q95.69-34.5 97.59-34.5L97.59-34.5 101.74-34.5Q102.59-34.5 103.09-34.1 103.59-33.7 103.94-32.95L103.94-32.95 114.84-10.25Q115.39-9.2 116.02-7.85 116.64-6.5 117.24-5.2L117.24-5.2 118.04-5.2Q117.94-6.55 117.89-7.88 117.84-9.2 117.84-10.5L117.84-10.5 117.84-34.5ZM152.09-35.1L152.09-35.1Q154.59-35.05 157.26-34.85 159.94-34.65 162.59-34.05L162.59-34.05 162.24-30.5Q160.09-30.6 157.41-30.65 154.74-30.7 152.24-30.7L152.24-30.7Q150.49-30.7 149.24-30.6 147.99-30.5 147.19-30.05 146.39-29.6 146.01-28.6 145.64-27.6 145.64-25.85L145.64-25.85Q145.64-23.2 146.64-22.13 147.64-21.05 149.89-20.5L149.89-20.5 156.84-18.65Q160.84-17.65 162.34-15.28 163.84-12.9 163.84-8.9L163.84-8.9Q163.84-5.9 163.16-4.05 162.49-2.2 161.06-1.2 159.64-0.2 157.39 0.2 155.14 0.6 152.04 0.6L152.04 0.6Q150.34 0.6 147.54 0.45 144.74 0.3 141.09-0.4L141.09-0.4 141.44-4.05Q144.39-3.95 146.26-3.88 148.14-3.8 149.49-3.8 150.84-3.8 152.19-3.8L152.19-3.8Q154.69-3.8 156.14-4.17 157.59-4.55 158.19-5.68 158.79-6.8 158.79-8.95L158.79-8.95Q158.79-10.8 158.36-11.85 157.94-12.9 157.01-13.43 156.09-13.95 154.64-14.3L154.64-14.3 147.49-16.25Q143.74-17.3 142.19-19.65 140.64-22 140.64-25.9L140.64-25.9Q140.64-28.9 141.31-30.75 141.99-32.6 143.39-33.52 144.79-34.45 146.94-34.77 149.09-35.1 152.09-35.1ZM190.84-34.5L195.84-34.5 195.84-13.3Q195.84-8.25 194.61-5.18 193.39-2.1 190.64-0.73 187.89 0.65 183.29 0.65L183.29 0.65Q178.49 0.65 175.64-0.73 172.79-2.1 171.51-5.18 170.24-8.25 170.24-13.3L170.24-13.3 170.24-34.5 175.24-34.5 175.24-13.3Q175.24-9.7 175.96-7.58 176.69-5.45 178.41-4.58 180.14-3.7 183.04-3.7L183.04-3.7Q185.94-3.7 187.61-4.58 189.29-5.45 190.06-7.58 190.84-9.7 190.84-13.3L190.84-13.3 190.84-34.5ZM215.53-34.9L215.53-34.9Q219.83-34.9 222.36-34.13 224.88-33.35 226.01-31.4 227.13-29.45 227.13-25.9L227.13-25.9Q227.13-22.2 225.76-20.25 224.38-18.3 221.28-18L221.28-18 221.28-17.8Q225.13-17.45 226.68-15.1 228.23-12.75 228.23-8.6L228.23-8.6Q228.23-5.05 227.11-3.1 225.98-1.15 223.53-0.38 221.08 0.4 217.08 0.4L217.08 0.4Q214.03 0.4 211.86 0.38 209.68 0.35 207.83 0.25 205.98 0.15 203.98 0L203.98 0 204.68-3.85Q205.78-3.8 208.93-3.75 212.08-3.7 216.28-3.7L216.28-3.7Q218.88-3.7 220.38-4.15 221.88-4.6 222.53-5.85 223.18-7.1 223.18-9.5L223.18-9.5Q223.18-12.1 222.51-13.48 221.83-14.85 220.28-15.43 218.73-16 215.98-16.05L215.98-16.05 204.63-16.05 204.63-19.7 215.93-19.7Q218.33-19.75 219.73-20.2 221.13-20.65 221.73-21.88 222.33-23.1 222.33-25.3L222.33-25.3Q222.33-27.55 221.68-28.75 221.03-29.95 219.48-30.38 217.93-30.8 215.28-30.8L215.28-30.8Q212.78-30.8 210.78-30.8 208.78-30.8 207.28-30.78 205.78-30.75 204.68-30.65L204.68-30.65 203.98-34.5Q205.78-34.7 207.41-34.77 209.03-34.85 210.96-34.88 212.88-34.9 215.53-34.9ZM203.98-34.5L208.88-34.5 208.88 0 203.98 0 203.98-34.5ZM262.88-34.5L268.28-34.5Q270.23-34.5 270.28-32.45L270.28-32.45 271.68 0 266.78 0 265.53-30.45 264.53-30.45 257.23-5.7Q256.83-4.05 255.13-4.05L255.13-4.05 251.03-4.05Q249.28-4.05 248.83-5.7L248.83-5.7 241.53-30.45 240.53-30.45 239.38 0 234.48 0 235.83-32.45Q235.93-34.5 237.83-34.5L237.83-34.5 243.23-34.5Q244.83-34.5 245.33-32.85L245.33-32.85 251.38-12.45Q251.78-11.3 252.03-10.15 252.28-9 252.63-7.75L252.63-7.75 253.48-7.75Q253.83-9 254.11-10.15 254.38-11.3 254.73-12.55L254.73-12.55 260.78-32.85Q261.18-34.5 262.88-34.5L262.88-34.5ZM279.38-34.5L284.38-34.5 284.38 0 279.38 0 279.38-34.5ZM300.68-34.5L305.68-34.5 305.68 0 300.68 0 300.68-34.5ZM289.72-34.5L316.68-34.5 316.68-30.2 289.72-30.2 289.72-34.5ZM329.92-34.5L334.92-34.5 334.92 0 329.92 0 329.92-34.5ZM318.97-34.5L345.92-34.5 345.92-30.2 318.97-30.2 318.97-34.5ZM357.77-34.55L357.77-34.55Q360.27-34.55 362.87-34.55 365.47-34.55 368-34.48 370.52-34.4 372.82-34.25L372.82-34.25 372.62-30.4 358.87-30.4Q357.37-30.4 356.67-29.65 355.97-28.9 355.97-27.25L355.97-27.25 355.97-7.25Q355.97-5.6 356.67-4.83 357.37-4.05 358.87-4.05L358.87-4.05 372.62-4.05 372.82-0.25Q370.52-0.1 368-0.05 365.47 0 362.87 0.03 360.27 0.05 357.77 0.05L357.77 0.05Q354.67 0.05 352.84-1.63 351.02-3.3 350.97-6.1L350.97-6.1 350.97-28.4Q351.02-31.25 352.84-32.9 354.67-34.55 357.77-34.55ZM351.87-16.25L351.87-20.1 370.67-20.1 370.67-16.25 351.87-16.25ZM391.57-34.95L391.57-34.95Q395.67-34.95 398.19-34.08 400.72-33.2 401.87-31.03 403.02-28.85 403.02-24.95L403.02-24.95Q403.02-22.2 402.37-20.35 401.72-18.5 400.34-17.45 398.97-16.4 396.62-16.1L396.62-16.1 396.62-15.85Q397.47-15.65 398.32-15.05 399.17-14.45 399.92-13.43 400.67-12.4 401.02-10.85L401.02-10.85 404.27 0 398.97 0 395.97-10.75Q395.37-12.65 394.32-13.45 393.27-14.25 391.57-14.25L391.57-14.25Q388.42-14.25 386.17-14.28 383.92-14.3 382.39-14.35 380.87-14.4 379.92-14.4L379.92-14.4 380.07-18.4 391.47-18.4Q393.92-18.45 395.32-18.98 396.72-19.5 397.34-20.85 397.97-22.2 397.97-24.65L397.97-24.65Q397.97-27.1 397.34-28.43 396.72-29.75 395.32-30.28 393.92-30.8 391.47-30.8L391.47-30.8Q387.27-30.8 384.22-30.75 381.17-30.7 380.12-30.7L380.12-30.7 379.42-34.5Q381.32-34.7 383.02-34.8 384.72-34.9 386.74-34.93 388.77-34.95 391.57-34.95ZM379.42-34.5L384.37-34.5 384.37 0 379.42 0 379.42-34.5Z" opacity="1" transform="matrix(1,0,0,1,0,0)" fill="#000000" class="wordmark-text-0" data-fill-palette-color="primary" id="text-0"></path></svg></g></svg></g><g transform="matrix(1,0,0,1,0,22.93053394718485)"><svg viewBox="0 0 208 11.4645620328849" height="11.4645620328849" width="208"><g transform="matrix(1,0,0,1,0,0)"><svg width="208" viewBox="2.200000047683716 -38.70000076293945 888.0899658203125 48.95000076293945" height="11.4645620328849" data-palette-color="#c56e33"><path d="M11.2 0.4L11.2 0.4Q8.9 0.4 6.83-0.83 4.75-2.05 3.48-4.3 2.2-6.55 2.2-9.65L2.2-9.65Q2.2-11.75 2.98-13.83 3.75-15.9 5.23-17.65 6.7-19.4 8.83-20.48 10.95-21.55 13.75-21.55L13.75-21.55Q16-21.55 17.55-20.9 19.1-20.25 20.15-19.23 21.2-18.2 21.8-16.9L21.8-16.9 21.35-16 22.4-20.7 26.65-20.7 24.15 0 19.5 0 20.15-5.25 20.5-4.05Q20.2-3.6 19.45-2.83 18.7-2.05 17.53-1.3 16.35-0.55 14.78-0.08 13.2 0.4 11.2 0.4ZM13.75-3.35L13.75-3.35Q15.25-3.35 16.6-3.98 17.95-4.6 18.98-5.73 20-6.85 20.55-8.45L20.55-8.45 21-12.5Q20.8-14.05 19.93-15.2 19.05-16.35 17.65-17.03 16.25-17.7 14.55-17.7L14.55-17.7Q12.5-17.7 11.08-16.95 9.65-16.2 8.75-15.03 7.85-13.85 7.45-12.58 7.05-11.3 7.05-10.2L7.05-10.2Q7.05-8.2 7.9-6.65 8.75-5.1 10.28-4.23 11.8-3.35 13.75-3.35ZM57.84 0.8L57.84 0.8Q54.99 0.8 53.34-0.88 51.69-2.55 51.99-5.3L51.99-5.3 53.84-20.7 58.49-20.7 56.79-6.9Q56.69-5.35 57.47-4.3 58.24-3.25 60.09-3.2L60.09-3.2Q61.84-3.2 63.37-4.23 64.89-5.25 65.94-7.03 66.99-8.8 67.24-11.05L67.24-11.05 68.44-20.7 73.09-20.7 70.54 0 66.34 0 66.59-4.95 66.79-4.25Q65.99-2.85 64.62-1.7 63.24-0.55 61.52 0.13 59.79 0.8 57.84 0.8ZM102.13-20.6L103.23-29.8 107.88-29.8 106.78-20.6 112.48-20.6 112.03-16.95 106.33-16.95 104.28 0 99.63 0 101.68-16.95 97.88-16.95 98.28-20.6 102.13-20.6ZM145.13 0.5L145.13 0.5Q143.18 0.5 141.23-0.15 139.28-0.8 137.68-2.08 136.08-3.35 135.13-5.25 134.18-7.15 134.18-9.65L134.18-9.65Q134.18-11.6 134.85-13.68 135.53-15.75 136.93-17.5 138.33-19.25 140.6-20.35 142.88-21.45 146.13-21.45L146.13-21.45Q148.98-21.45 151.45-20.25 153.93-19.05 155.5-16.78 157.08-14.5 157.08-11.3L157.08-11.3Q157.08-10 156.7-8.38 156.33-6.75 155.5-5.2 154.68-3.65 153.3-2.35 151.93-1.05 149.9-0.28 147.88 0.5 145.13 0.5ZM145.28-3.35L145.28-3.35Q147.83-3.35 149.38-4.58 150.93-5.8 151.63-7.6 152.33-9.4 152.33-11.1L152.33-11.1Q152.33-12.85 151.75-14.08 151.18-15.3 150.2-16.1 149.23-16.9 148.1-17.28 146.98-17.65 145.98-17.65L145.98-17.65Q143.48-17.65 141.9-16.45 140.33-15.25 139.6-13.43 138.88-11.6 138.88-9.9L138.88-9.9Q138.88-7.65 139.85-6.2 140.83-4.75 142.33-4.05 143.83-3.35 145.28-3.35ZM183.67-20.7L187.87-20.7 187.72-15.95 187.57-16.7Q189.07-18.95 191.29-20.23 193.52-21.5 196.32-21.5L196.32-21.5Q198.87-21.5 200.37-20.4 201.87-19.3 202.12-17.1L202.12-17.1 201.97-16.95Q203.47-19 205.69-20.25 207.92-21.5 210.32-21.5L210.32-21.5Q213.37-21.5 214.92-19.78 216.47-18.05 216.22-15.3L216.22-15.3 214.37 0 209.72 0 211.37-13.65Q211.52-15.25 210.92-16.3 210.32-17.35 208.62-17.45L208.62-17.45Q206.72-17.45 205.17-16.38 203.62-15.3 202.62-13.58 201.62-11.85 201.32-9.85L201.32-9.85 200.12 0 195.42 0 197.12-13.65Q197.22-15.25 196.59-16.3 195.97-17.35 194.22-17.45L194.22-17.45Q192.37-17.45 190.82-16.38 189.27-15.3 188.27-13.55 187.27-11.8 187.02-9.8L187.02-9.8 185.82 0 181.17 0 183.67-20.7ZM249.96 0.4L249.96 0.4Q247.66 0.4 245.59-0.83 243.51-2.05 242.24-4.3 240.96-6.55 240.96-9.65L240.96-9.65Q240.96-11.75 241.74-13.83 242.51-15.9 243.99-17.65 245.46-19.4 247.59-20.48 249.71-21.55 252.51-21.55L252.51-21.55Q254.76-21.55 256.31-20.9 257.86-20.25 258.91-19.23 259.96-18.2 260.56-16.9L260.56-16.9 260.11-16 261.16-20.7 265.41-20.7 262.91 0 258.26 0 258.91-5.25 259.26-4.05Q258.96-3.6 258.21-2.83 257.46-2.05 256.29-1.3 255.11-0.55 253.54-0.08 251.96 0.4 249.96 0.4ZM252.51-3.35L252.51-3.35Q254.01-3.35 255.36-3.98 256.71-4.6 257.74-5.73 258.76-6.85 259.31-8.45L259.31-8.45 259.76-12.5Q259.56-14.05 258.69-15.2 257.81-16.35 256.41-17.03 255.01-17.7 253.31-17.7L253.31-17.7Q251.26-17.7 249.84-16.95 248.41-16.2 247.51-15.03 246.61-13.85 246.21-12.58 245.81-11.3 245.81-10.2L245.81-10.2Q245.81-8.2 246.66-6.65 247.51-5.1 249.04-4.23 250.56-3.35 252.51-3.35ZM294.5-20.6L295.6-29.8 300.25-29.8 299.15-20.6 304.85-20.6 304.4-16.95 298.7-16.95 296.65 0 292 0 294.05-16.95 290.25-16.95 290.65-20.6 294.5-20.6ZM327.1 0L329.65-20.7 334.3-20.7 331.75 0 327.1 0ZM330-27.6L330-27.6Q330-28.75 330.85-29.55 331.7-30.35 332.95-30.35L332.95-30.35Q333.9-30.35 334.77-29.75 335.65-29.15 335.6-27.9L335.6-27.9Q335.55-26.75 334.7-25.95 333.85-25.15 332.6-25.15L332.6-25.15Q331.65-25.15 330.8-25.78 329.95-26.4 330-27.6ZM361.44-20.7L365.64-20.7 365.59-16 365.24-16.65Q366.59-18.8 368.91-20.15 371.24-21.5 374.29-21.5L374.29-21.5Q377.29-21.5 378.96-19.78 380.64-18.05 380.39-15.3L380.39-15.3 378.49 0 373.84 0 375.49-13.7Q375.69-15.4 374.81-16.45 373.94-17.5 371.99-17.5L371.99-17.5Q370.14-17.5 368.59-16.48 367.04-15.45 366.04-13.7 365.04-11.95 364.79-9.7L364.79-9.7 363.59 0 358.94 0 361.44-20.7ZM415.48 10.25L415.48 10.25Q412.98 10.25 411.13 9.73 409.28 9.2 407.8 8.2 406.33 7.2 404.98 5.9L404.98 5.9 408.13 2.75Q409.23 3.9 410.38 4.67 411.53 5.45 412.9 5.8 414.28 6.15 415.88 6.15L415.88 6.15Q417.93 6.15 419.43 5.43 420.93 4.7 421.8 3.38 422.68 2.05 422.88 0.3L422.88 0.3 423.58-5.3 423.93-4.45Q422.88-2.3 420.6-0.93 418.33 0.45 415.23 0.45L415.23 0.45Q412.33 0.45 410.05-0.83 407.78-2.1 406.45-4.48 405.13-6.85 405.13-10.1L405.13-10.1Q405.13-11.75 405.8-13.73 406.48-15.7 407.9-17.48 409.33-19.25 411.55-20.38 413.78-21.5 416.88-21.5L416.88-21.5Q419.98-21.5 422.18-20.33 424.38-19.15 425.23-17.3L425.23-17.3 424.68-16.35 425.88-20.7 430.13-20.7 427.43 1.05Q427.13 3.85 425.55 5.9 423.98 7.95 421.4 9.1 418.83 10.25 415.48 10.25ZM417.73-17.7L417.73-17.7Q415.53-17.7 414.03-16.93 412.53-16.15 411.6-14.95 410.68-13.75 410.28-12.48 409.88-11.2 409.88-10.1L409.88-10.1Q409.88-8.1 410.73-6.58 411.58-5.05 413.13-4.2 414.68-3.35 416.78-3.35L416.78-3.35Q418.33-3.35 419.78-4 421.23-4.65 422.3-5.78 423.38-6.9 423.98-8.35L423.98-8.35 424.48-12.5Q424.23-14 423.28-15.18 422.33-16.35 420.93-17.03 419.53-17.7 417.73-17.7ZM499.66-3.5L499.66-3.5Q500.91-3.5 502.06-3.93 503.21-4.35 504.26-5L504.26-5 505.96-1.45Q504.46-0.55 502.69-0.05 500.91 0.45 499.21 0.45L499.21 0.45Q495.96 0.45 493.51-0.78 491.06-2 489.69-4.35 488.31-6.7 488.31-10L488.31-10Q488.31-12.05 489.06-14.05 489.81-16.05 491.31-17.73 492.81-19.4 495.04-20.43 497.26-21.45 500.21-21.45L500.21-21.45Q502.06-21.45 503.74-20.98 505.41-20.5 506.81-19.4 508.21-18.3 509.19-16.45 510.16-14.6 510.56-11.9L510.56-11.9 492.86-6.9 492.11-9.75 507.21-14.1 505.56-13.35Q505.06-15.3 503.59-16.55 502.11-17.8 500.06-17.8L500.06-17.8Q497.86-17.8 496.26-16.78 494.66-15.75 493.81-14.1 492.96-12.45 492.96-10.55L492.96-10.55Q492.96-8.15 493.91-6.6 494.86-5.05 496.41-4.28 497.96-3.5 499.66-3.5ZM541.76 0.6L541.51 0.6 532.61-20.7 538.11-20.7 543.86-4.4 541.06-4.5 550.21-20.7 555.41-20.7 541.76 0.6ZM587.4-3.5L587.4-3.5Q588.65-3.5 589.8-3.93 590.95-4.35 592-5L592-5 593.7-1.45Q592.2-0.55 590.42-0.05 588.65 0.45 586.95 0.45L586.95 0.45Q583.7 0.45 581.25-0.78 578.8-2 577.42-4.35 576.05-6.7 576.05-10L576.05-10Q576.05-12.05 576.8-14.05 577.55-16.05 579.05-17.73 580.55-19.4 582.77-20.43 585-21.45 587.95-21.45L587.95-21.45Q589.8-21.45 591.47-20.98 593.15-20.5 594.55-19.4 595.95-18.3 596.92-16.45 597.9-14.6 598.3-11.9L598.3-11.9 580.6-6.9 579.85-9.75 594.95-14.1 593.3-13.35Q592.8-15.3 591.32-16.55 589.85-17.8 587.8-17.8L587.8-17.8Q585.6-17.8 584-16.78 582.4-15.75 581.55-14.1 580.7-12.45 580.7-10.55L580.7-10.55Q580.7-8.15 581.65-6.6 582.6-5.05 584.15-4.28 585.7-3.5 587.4-3.5ZM624.24-20.7L628.39-20.7 628.04-15.65Q629.09-17.55 630.67-18.85 632.24-20.15 633.97-20.83 635.69-21.5 637.14-21.5L637.14-21.5 636.39-16.9Q634.04-17.05 632.12-16 630.19-14.95 628.99-13.2 627.79-11.45 627.54-9.45L627.54-9.45 626.34 0 621.74 0 624.24-20.7ZM665.43 9.95L660.78 9.95 678.18-20.7 682.58-20.7 665.43 9.95ZM671.08-2.2L667.18 0.15 659.78-20.7 665.03-20.7 671.08-2.2ZM707.92-20.6L709.02-29.8 713.67-29.8 712.57-20.6 718.27-20.6 717.82-16.95 712.12-16.95 710.07 0 705.42 0 707.47-16.95 703.67-16.95 704.07-20.6 707.92-20.6ZM747.07-15.75L746.97-16.75Q748.32-18.85 750.67-20.18 753.02-21.5 756.02-21.5L756.02-21.5Q758.97-21.5 760.62-19.78 762.27-18.05 762.02-15.3L762.02-15.3 760.12 0 755.47 0 757.12-13.8Q757.22-15.4 756.44-16.43 755.67-17.45 753.82-17.5L753.82-17.5Q751.97-17.5 750.37-16.48 748.77-15.45 747.74-13.7 746.72-11.95 746.42-9.7L746.42-9.7 745.22 0 740.57 0 745.27-38.7 749.87-38.7 747.07-15.75ZM787.26 0L789.81-20.7 794.46-20.7 791.91 0 787.26 0ZM790.16-27.6L790.16-27.6Q790.16-28.75 791.01-29.55 791.86-30.35 793.11-30.35L793.11-30.35Q794.06-30.35 794.93-29.75 795.81-29.15 795.76-27.9L795.76-27.9Q795.71-26.75 794.86-25.95 794.01-25.15 792.76-25.15L792.76-25.15Q791.81-25.15 790.96-25.78 790.11-26.4 790.16-27.6ZM821.6-20.7L825.8-20.7 825.75-16 825.4-16.65Q826.75-18.8 829.08-20.15 831.4-21.5 834.45-21.5L834.45-21.5Q837.45-21.5 839.13-19.78 840.8-18.05 840.55-15.3L840.55-15.3 838.65 0 834 0 835.65-13.7Q835.85-15.4 834.98-16.45 834.1-17.5 832.15-17.5L832.15-17.5Q830.3-17.5 828.75-16.48 827.2-15.45 826.2-13.7 825.2-11.95 824.95-9.7L824.95-9.7 823.75 0 819.1 0 821.6-20.7ZM875.64 10.25L875.64 10.25Q873.14 10.25 871.29 9.73 869.44 9.2 867.97 8.2 866.49 7.2 865.14 5.9L865.14 5.9 868.29 2.75Q869.39 3.9 870.54 4.67 871.69 5.45 873.07 5.8 874.44 6.15 876.04 6.15L876.04 6.15Q878.09 6.15 879.59 5.43 881.09 4.7 881.97 3.38 882.84 2.05 883.04 0.3L883.04 0.3 883.74-5.3 884.09-4.45Q883.04-2.3 880.77-0.93 878.49 0.45 875.39 0.45L875.39 0.45Q872.49 0.45 870.22-0.83 867.94-2.1 866.62-4.48 865.29-6.85 865.29-10.1L865.29-10.1Q865.29-11.75 865.97-13.73 866.64-15.7 868.07-17.48 869.49-19.25 871.72-20.38 873.94-21.5 877.04-21.5L877.04-21.5Q880.14-21.5 882.34-20.33 884.54-19.15 885.39-17.3L885.39-17.3 884.84-16.35 886.04-20.7 890.29-20.7 887.59 1.05Q887.29 3.85 885.72 5.9 884.14 7.95 881.57 9.1 878.99 10.25 875.64 10.25ZM877.89-17.7L877.89-17.7Q875.69-17.7 874.19-16.93 872.69-16.15 871.77-14.95 870.84-13.75 870.44-12.48 870.04-11.2 870.04-10.1L870.04-10.1Q870.04-8.1 870.89-6.58 871.74-5.05 873.29-4.2 874.84-3.35 876.94-3.35L876.94-3.35Q878.49-3.35 879.94-4 881.39-4.65 882.47-5.78 883.54-6.9 884.14-8.35L884.14-8.35 884.64-12.5Q884.39-14 883.44-15.18 882.49-16.35 881.09-17.03 879.69-17.7 877.89-17.7Z" opacity="1" transform="matrix(1,0,0,1,0,0)" fill="#000000" class="slogan-text-1" data-fill-palette-color="secondary" id="text-1"></path></svg></g></svg></g></svg></g></svg></g><g transform="matrix(1,0,0,1,35.5510115697775,0)"><svg viewBox="0 0 136.897976860445 95.06804528891278" height="95.06804528891278" width="136.897976860445"><g><svg xmlns="http://www.w3.org/2000/svg" xmlns:xlink="http://www.w3.org/1999/xlink" version="1.1" x="0" y="0" viewBox="5 18.799999237060547 90 62.500003814697266" enable-background="new 0 0 100 100" xml:space="preserve" height="95.06804528891278" width="136.897976860445" class="icon-icon-0" data-fill-palette-color="accent" id="icon-0"><path d="M50 18.8c-16.8 0-30.6 13.3-31.2 30H5v2.5h13.8c0.7 16.7 14.4 30 31.2 30s30.6-13.3 31.2-30H95v-2.5H81.2C80.6 32.1 66.8 18.8 50 18.8zM50 78.8c-15.9 0-28.8-12.9-28.8-28.8S34.1 21.3 50 21.3c15.9 0 28.8 12.9 28.8 28.8S65.9 78.8 50 78.8z" fill="#000000" data-fill-palette-color="accent"></path><polygon points="70,45 67.5,45 67.5,48.8 63.8,48.8 63.8,51.3 67.5,51.3 67.5,55 70,55 70,51.3 73.8,51.3 73.8,48.8 70,48.8 " fill="#000000" data-fill-palette-color="accent"></polygon><rect x="26.3" y="48.8" width="10" height="2.5" fill="#000000" data-fill-palette-color="accent"></rect></svg></g></svg></g><g></g></svg></g></svg></g></svg></g></svg></g><defs></defs></svg><rect width="320" height="360" fill="none" stroke="none" visibility="hidden"></rect></g></svg></g></svg>